# xmcd
#
# Track frame offsets: 
#        150
#        10823
#        20070
#        30839
#        44645
#        56033
#        69418
#        80814
#        92847
#        106020
#        121119
#        130948
#        140649
#        154565
#        167438
#        182946
#        196495
#        213010
#        227631
#        241025
#
# Disc length: 3466 seconds
#
# Revision: 12
# Processed by: cddbd v1.5.2PL0 Copyright (c) Steve Scherf et al.
# Submitted via: ExactAudioCopyFreeDBPlugin 1.0
#
DISCID=040d8814
DTITLE=Waylon Jennings - The Essential Waylon Jennings
DYEAR=1996
DGENRE=Country
TTITLE0=Only Daddy That'll Walk the Line
TTITLE1=Brown Eyed Handsome Man
TTITLE2=The Taker
TTITLE3=Good Hearted Woman
TTITLE4=You Asked Me To
TTITLE5=Amanda
TTITLE6=Rainy Day Woman
TTITLE7=Waymore's Blues
TTITLE8=Are You Sure Hank Done It This Way
TTITLE9=Wild Side Of Life - It Was't God Who Made Honky Tonk Angels
TTITLE10=The Wurlitzer Prize (I Don't Want to Get Over You)
TTITLE11=Theme From The Dukes Of Hazzard (Good Ol' Boys)
TTITLE12=Storms Never Last
TTITLE13=Just to Satisfy You
TTITLE14=Lucille (You Won't Do Your Daddy's Will)
TTITLE15=Never Could Toe the Mark
TTITLE16=America
TTITLE17=The Broken Promise Land
TTITLE18=Drinkin' and Dreamin'
TTITLE19=Whatever Happened to the Blues
EXTD=
EXTT0=
EXTT1=
EXTT2=
EXTT3=
EXTT4=
EXTT5=
EXTT6=
EXTT7=
EXTT8=
EXTT9=
EXTT10=
EXTT11=
EXTT12=
EXTT13=
EXTT14=
EXTT15=
EXTT16=
EXTT17=
EXTT18=
EXTT19=
PLAYORDER=
